<svg width="24" height="24" viewBox="0 0 32 32" fill="none" xmlns="http://www.w3.org/2000/svg">
<path d="M16 21.3333C17.4667 21.3333 18.6667 22.5333 18.6667 24C18.6667 25.4667 17.4667 26.6667 16 26.6667C14.5333 26.6667 13.3333 25.4667 13.3333 24C13.3333 22.5333 14.5333 21.3333 16 21.3333ZM16 13.3333C17.4667 13.3333 18.6667 14.5333 18.6667 16C18.6667 17.4667 17.4667 18.6667 16 18.6667C14.5333 18.6667 13.3333 17.4667 13.3333 16C13.3333 14.5333 14.5333 13.3333 16 13.3333ZM16 5.33333C17.4667 5.33333 18.6667 6.53333 18.6667 8C18.6667 9.46667 17.4667 10.6667 16 10.6667C14.5333 10.6667 13.3333 9.46667 13.3333 8C13.3333 6.53333 14.5333 5.33333 16 5.33333ZM8 21.3333C9.46667 21.3333 10.6667 22.5333 10.6667 24C10.6667 25.4667 9.46667 26.6667 8 26.6667C6.53333 26.6667 5.33333 25.4667 5.33333 24C5.33333 22.5333 6.53333 21.3333 8 21.3333ZM8 13.3333C9.46667 13.3333 10.6667 14.5333 10.6667 16C10.6667 17.4667 9.46667 18.6667 8 18.6667C6.53333 18.6667 5.33333 17.4667 5.33333 16C5.33333 14.5333 6.53333 13.3333 8 13.3333ZM8 5.33333C9.46667 5.33333 10.6667 6.53333 10.6667 8C10.6667 9.46667 9.46667 10.6667 8 10.6667C6.53333 10.6667 5.33333 9.46667 5.33333 8C5.33333 6.53333 6.53333 5.33333 8 5.33333ZM24 21.3333C25.4667 21.3333 26.6667 22.5333 26.6667 24C26.6667 25.4667 25.4667 26.6667 24 26.6667C22.5333 26.6667 21.3333 25.4667 21.3333 24C21.3333 22.5333 22.5333 21.3333 24 21.3333ZM24 13.3333C25.4667 13.3333 26.6667 14.5333 26.6667 16C26.6667 17.4667 25.4667 18.6667 24 18.6667C22.5333 18.6667 21.3333 17.4667 21.3333 16C21.3333 14.5333 22.5333 13.3333 24 13.3333ZM24 5.33333C25.4667 5.33333 26.6667 6.53333 26.6667 8C26.6667 9.46667 25.4667 10.6667 24 10.6667C22.5333 10.6667 21.3333 9.46667 21.3333 8C21.3333 6.53333 22.5333 5.33333 24 5.33333Z" fill="#000000de"/>
</svg>
